<svg xmlns="http://www.w3.org/2000/svg" xmlns:xlink="http://www.w3.org/1999/xlink" width="280" height="47" viewBox="0 0 280 47">
    <defs>
        <path id="a" d="M0 46.229h279.45V.539H0z"/>
    </defs>
    <g fill="none" fill-rule="evenodd">
        <path fill="#000" d="M85.497 27.412c2.878 0 5.2-.578 7.425-2.452a2.973 2.973 0 0 0 .334-4.24c-1.1-1.262-2.872-1.194-4.314-.328-1.254.753-2.004 1.004-3.445 1.004-3.531 0-6.405-3.097-6.405-6.905 0-3.807 2.874-6.904 6.405-6.904 2.42 0 4.556 1.49 5.642 3.662h-6.954c-1.689 0-3.058 1.347-3.058 3.007 0 1.661 1.37 3.008 3.058 3.008h10.77l.035-.002.034.002c.045-.002.088-.007.132-.01.048-.003.096-.005.144-.01.057-.007.114-.016.171-.025.043-.008.086-.014.129-.023.06-.013.12-.029.178-.045.037-.01.075-.019.112-.03.062-.02.122-.044.183-.067.031-.012.063-.023.094-.036a2.82 2.82 0 0 0 .185-.088c.026-.013.053-.025.08-.04.062-.034.122-.07.182-.109.022-.014.045-.026.067-.041.06-.041.12-.086.178-.131l.055-.042c.058-.048.114-.1.169-.151l.046-.043c.055-.055.106-.112.157-.17l.039-.044c.05-.06.097-.123.142-.187l.032-.044c.045-.066.086-.135.126-.204l.026-.044c.039-.072.075-.145.108-.22l.02-.043a3.48 3.48 0 0 0 .088-.236c.003-.013.01-.026.013-.04a2.93 2.93 0 0 0 .066-.25l.009-.037a3.163 3.163 0 0 0 .059-.565l.001-.033v-.009l.001-.056c-.155-6.959-5.77-12.62-12.52-12.62-6.904 0-12.521 5.796-12.521 12.92 0 7.125 5.617 12.92 12.522 12.92M126.148 13.998l-.002.349c-.016 1.769-.096 7.093-.096 7.093 0 2.885-2.62 5.553-6.24 5.553l-5.92-.079c-.088.006-.176.006-.264.006-.133 0-.264-.006-.394-.01h-.019c-3.28-.113-6.269-1.56-8.457-3.832a13.06 13.06 0 0 1-3.65-8.778c0-.019.003-.037.003-.058l-.002-.008.002-.031c0-.089.005-.18.013-.267.003-.016.006-.024.006-.037.01-.089.024-.175.04-.262.002-.013.007-.026.01-.037a3.652 3.652 0 0 1 .078-.29c.026-.081.055-.16.087-.235l.021-.045c.033-.073.07-.146.107-.222a.35.35 0 0 0 .027-.04 2.673 2.673 0 0 1 .3-.436c.014-.017.027-.03.04-.047.051-.056.102-.113.155-.166.016-.015.031-.031.048-.044.053-.052.109-.102.167-.152.02-.013.038-.026.057-.042.058-.044.116-.089.177-.13l.067-.043a3.45 3.45 0 0 1 .181-.107c.027-.016.054-.029.08-.042.062-.029.123-.06.186-.086.03-.013.065-.024.097-.04.058-.02.119-.044.18-.064l.112-.03c.059-.015.117-.031.179-.044.042-.008.085-.015.127-.024.06-.008.115-.018.173-.023.045-.005.096-.01.144-.01l.13-.012s.025.004.035.004c0 0 .024-.004.035-.004h10.77c1.688 0 3.06 1.346 3.06 3.008s-1.372 3.007-3.06 3.007h-6.956c1.09 2.173 3.224 3.664 5.644 3.664.67 0 1.505-.007 2.045-.007 3.854 0 4.318-1.748 4.318-4.842 0-.61.042-1.28.042-2.013v-.045c0-3.807-2.875-6.38-6.405-6.38h-8.148c-1.689 0-3.06-1.348-3.06-3.01 0-1.66 1.371-3.007 3.06-3.007h8.148c4.259 0 8.028 2.007 10.291 5.218.01.016.022.032.033.047 1.39 1.984 2.198 4.424 2.198 7.132"/>
        <g transform="translate(0 .317)">
            <mask id="b" fill="#fff">
                <use xlink:href="#a"/>
            </mask>
            <path fill="#000" d="M100.371 46.229c-10.276 0-19.103-3.084-26.238-9.165-4.623-3.939-8.405-8.995-11.565-15.456-3.506-7.17-5.413-11.854-5.862-13.018-.522-1.329-1.345-1.723-1.99-1.7-.453.018-1.384.352-2.032 1.766l-5.925 13.142c-1.497 3.344-4.625 5.042-7.608 5.042-2.984 0-6.065-1.698-7.61-5.042L25.618 8.656c-.592-1.434-1.58-1.746-2.032-1.765-.548-.024-1.473.35-1.979 1.68 0 0-5.393 14.767-5.976 16.165-1.41 3.382-4.419 5.088-7.608 5.042-2.985-.043-5.758-1.837-7.61-5.042a3.082 3.082 0 0 1 1.189-4.24c1.52-.849 3.45-.327 4.312 1.167.808 1.398 1.65 1.716 2.116 1.721.592.006 1.448-.216 1.972-1.507 0 0 5.902-16.13 5.976-16.295 1.475-3.35 4.624-5.043 7.608-5.043s6.06 1.733 7.61 5.043l5.922 13.141c.637 1.383 1.46 1.766 2.033 1.766.595-.001 1.396-.338 2.031-1.766 0 0 5.874-13.045 5.924-13.141C48.812 2.234 51.73.539 54.716.539a8.31 8.31 0 0 1 7.608 5.043c.068.156 2.126 5.52 5.946 13.331 2.778 5.68 6.051 10.08 10.007 13.451 5.951 5.072 13.385 7.644 22.094 7.644 20.6 0 29.919-14.74 32.969-21.077 3.143-6.531 5.898-13.213 5.957-13.34 1.572-3.423 4.624-5.043 7.608-5.043s6.333 1.874 7.609 5.042c.068.167 5.974 16.156 5.974 16.156.556 1.507 1.537 1.68 1.98 1.68.452 0 1.426-.36 2.032-1.767 0 0 5.873-12.96 5.921-13.054 1.732-3.313 4.626-5.042 7.61-5.042s5.944 1.672 7.608 5.042c.048.095 5.922 13.054 5.922 13.054.601 1.34 1.379 1.76 2.034 1.768.648.007 1.464-.351 1.98-1.68 0 0 5.91-15.99 5.976-16.157 1.326-3.356 4.625-5.042 7.609-5.042s6.143 1.551 7.61 5.042c.07.166 5.975 16.156 5.975 16.156.55 1.507 1.538 1.68 1.981 1.68.453 0 1.388-.293 2.034-1.767 0 0 5.87-12.962 5.923-13.054 1.851-3.204 4.626-5.042 7.61-5.042s5.757 1.838 7.609 5.042c.053.092 5.923 13.054 5.923 13.054.768 1.594 1.58 1.768 2.034 1.768.443 0 1.337-.124 1.98-1.68 0 0 5.913-15.99 5.978-16.158 1.368-3.534 4.626-5.041 7.61-5.041s5.758 1.837 7.61 5.041a3.083 3.083 0 0 1-1.187 4.241c-1.52.849-3.451.326-4.314-1.167-.808-1.398-1.31-1.807-2.11-1.895-.623-.067-1.517.33-1.98 1.68 0 0-4.238 13.214-5.978 16.289-1.821 3.22-4.625 5.042-7.61 5.042-2.984 0-5.883-1.392-7.609-5.042-.045-.096-5.922-13.054-5.922-13.054-.615-1.431-1.41-1.763-2.034-1.769-.538-.005-1.367.289-2.034 1.768l-5.923 13.055c-1.613 3.44-4.626 5.041-7.61 5.041a8.266 8.266 0 0 1-7.61-5.041c-.071-.166-5.976-16.157-5.976-16.157-.446-1.303-1.36-1.685-1.98-1.68-.443.003-1.5.32-1.98 1.68 0 0-5.91 15.989-5.976 16.157-1.4 3.516-4.625 5.041-7.61 5.041-2.983 0-6.021-1.582-7.609-5.042l-5.92-13.054c-.6-1.442-1.456-1.769-2.034-1.768-.55.001-1.425.365-2.033 1.768 0 0-5.88 12.956-5.922 13.054-1.416 3.37-4.625 5.042-7.608 5.042-2.985 0-6.368-1.523-7.61-5.042-.06-.17-5.973-16.156-5.973-16.156-.428-1.381-1.407-1.708-1.98-1.68-.447.02-1.328.19-2.01 1.728-.49 1.192-2.897 6.857-5.836 12.963-1.63 3.389-5.35 9.884-11.936 15.32-7.495 6.183-16.495 9.318-26.752 9.318" mask="url(#b)"/>
        </g>
    </g>
</svg>
